<?xml version="1.0" encoding="UTF-8" standalone="no"?>
<!-- Created with Inkscape (http://www.inkscape.org/) -->

<svg
   width="64"
   height="64"
   viewBox="0 0 64 64"
   id="svg3476"
   version="1.1"
   inkscape:version="1.1.2 (b8e25be833, 2022-02-05)"
   sodipodi:docname="csshtml.svg"
   xmlns:inkscape="http://www.inkscape.org/namespaces/inkscape"
   xmlns:sodipodi="http://sodipodi.sourceforge.net/DTD/sodipodi-0.dtd"
   xmlns="http://www.w3.org/2000/svg"
   xmlns:svg="http://www.w3.org/2000/svg"
   xmlns:rdf="http://www.w3.org/1999/02/22-rdf-syntax-ns#"
   xmlns:cc="http://creativecommons.org/ns#"
   xmlns:dc="http://purl.org/dc/elements/1.1/">
  <defs
     id="defs3478" />
  <sodipodi:namedview
     id="base"
     pagecolor="#ffffff"
     bordercolor="#666666"
     borderopacity="1.0"
     inkscape:pageopacity="0.0"
     inkscape:pageshadow="2"
     inkscape:zoom="4.8766667"
     inkscape:cx="27.170198"
     inkscape:cy="28.503076"
     inkscape:document-units="px"
     inkscape:current-layer="layer1"
     showgrid="false"
     fit-margin-top="0"
     fit-margin-left="0"
     fit-margin-right="0"
     fit-margin-bottom="0"
     inkscape:window-width="2560"
     inkscape:window-height="1369"
     inkscape:window-x="-8"
     inkscape:window-y="-8"
     inkscape:window-maximized="1"
     units="px"
     inkscape:pagecheckerboard="0" />
  <metadata
     id="metadata3481">
    <rdf:RDF>
      <cc:Work
         rdf:about="">
        <dc:format>image/svg+xml</dc:format>
        <dc:type
           rdf:resource="http://purl.org/dc/dcmitype/StillImage" />
      </cc:Work>
    </rdf:RDF>
  </metadata>
  <g
     inkscape:label="Calque 1"
     inkscape:groupmode="layer"
     id="layer1"
     transform="translate(-193.633,-739.48031)">
    <g
       id="g847"
       transform="matrix(0.71019987,0,0,0.70843301,53.41611,215.60805)">
      <polygon
         style="fill:#264de4"
         points="255.778,512 107.644,470.877 74.633,100.62 437.367,100.62 404.321,470.819 "
         id="polygon2989"
         transform="matrix(0.15557406,0,0,0.15557392,185.82204,723.82646)" />
      <polygon
         style="fill:#2965f1"
         points="256,130.894 256,480.523 376.03,447.246 404.27,130.894 "
         id="polygon2991"
         transform="matrix(0.15557406,0,0,0.15557392,185.82204,723.82646)" />
      <polygon
         style="fill:#ebebeb"
         points="256,313.627 256,268.217 150.31,268.217 154.38,313.627 "
         id="polygon2993"
         transform="matrix(0.15557406,0,0,0.15557392,185.82204,723.82646)" />
      <polygon
         style="fill:#ebebeb"
         points="142.132,176.305 146.26,221.716 256,221.716 256,176.305 255.843,176.305 "
         id="polygon2995"
         transform="matrix(0.15557406,0,0,0.15557392,185.82204,723.82646)" />
      <polygon
         style="fill:#ebebeb"
         points="201.994,336.333 177.419,336.333 156.409,336.333 162.771,407.634 255.791,433.457 256,433.399 256,386.153 255.801,386.206 205.227,372.55 "
         id="polygon2997"
         transform="matrix(0.15557406,0,0,0.15557392,185.82204,723.82646)" />
      <polygon
         style="fill:#ffffff"
         points="361.399,268.217 369.597,176.305 255.843,176.305 255.843,221.716 319.831,221.716 315.699,268.217 255.843,268.217 255.843,313.627 311.761,313.627 306.49,372.521 255.843,386.191 255.843,433.435 348.937,407.634 349.62,399.962 360.291,280.411 "
         id="polygon3005"
         transform="matrix(0.15557406,0,0,0.15557392,185.82204,723.82646)" />
    </g>
    <g
       id="g839"
       transform="matrix(1.4186048,0,0,1.4186048,214.92165,758.08496)">
      <path
         d="M 4.46,28.802 1.892,0.001 H 30.108 L 27.538,28.798 15.982,32 Z"
         fill="#e44d26"
         id="path2" />
      <path
         d="M 25.337,26.964 27.534,2.356 H 16 v 27.197 z"
         fill="#f16529"
         id="path4" />
      <path
         d="M 15.988,5.888 H 7.142 L 8.095,16.57 H 16 V 13.038 H 11.326 L 11.003,9.421 H 16 V 5.888 Z M 16,22.2 15.985,22.204 12.051,21.142 11.801,18.325 H 8.253 l 0.495,5.546 7.236,2 L 16,25.866 Z"
         fill="#ebebeb"
         id="path6" />
      <path
         d="m 15.988,16.57 h 4.35 l -0.4,4.58 -3.94,1.063 v 3.675 L 23.24,23.881 24.21,13.036 H 16 Z m 8.764,-9.734 0.084,-0.948 h -8.85 V 9.42 h 8.532 l 0.07,-0.794 z"
         fill="#ffffff"
         id="path8" />
    </g>
  </g>
</svg>
