<?xml version="1.0" encoding="UTF-8" standalone="no"?>
<svg
   width="64"
   height="64"
   viewBox="0 0 32 32"
   version="1.1"
   id="svg10"
   sodipodi:docname="w3_html5-icon1.svg"
   inkscape:version="1.1.2 (b8e25be833, 2022-02-05)"
   xmlns:inkscape="http://www.inkscape.org/namespaces/inkscape"
   xmlns:sodipodi="http://sodipodi.sourceforge.net/DTD/sodipodi-0.dtd"
   xmlns="http://www.w3.org/2000/svg"
   xmlns:svg="http://www.w3.org/2000/svg">
  <defs
     id="defs14" />
  <sodipodi:namedview
     id="namedview12"
     pagecolor="#ffffff"
     bordercolor="#666666"
     borderopacity="1.0"
     inkscape:pageshadow="2"
     inkscape:pageopacity="0.0"
     inkscape:pagecheckerboard="0"
     showgrid="false"
     inkscape:zoom="9.6453784"
     inkscape:cx="26.074664"
     inkscape:cy="31.828715"
     inkscape:window-width="2560"
     inkscape:window-height="1369"
     inkscape:window-x="-8"
     inkscape:window-y="-8"
     inkscape:window-maximized="1"
     inkscape:current-layer="svg10" />
  <path
     d="M 4.46,28.802 1.892,0.001 H 30.108 L 27.538,28.798 15.982,32 Z"
     fill="#e44d26"
     id="path2" />
  <path
     d="M 25.337,26.964 27.534,2.356 H 16 v 27.197 z"
     fill="#f16529"
     id="path4" />
  <path
     d="M 15.988,5.888 H 7.142 L 8.095,16.57 H 16 V 13.038 H 11.326 L 11.003,9.421 H 16 V 5.888 Z M 16,22.2 15.985,22.204 12.051,21.142 11.801,18.325 H 8.253 l 0.495,5.546 7.236,2 L 16,25.866 Z"
     fill="#ebebeb"
     id="path6" />
  <path
     d="m 15.988,16.57 h 4.35 l -0.4,4.58 -3.94,1.063 v 3.675 L 23.24,23.881 24.21,13.036 H 16 Z m 8.764,-9.734 0.084,-0.948 h -8.85 V 9.42 h 8.532 l 0.07,-0.794 z"
     fill="#ffffff"
     id="path8" />
</svg>
